<?xml version="1.0" encoding="UTF-8" standalone="no"?>
<!-- Generator: Adobe Illustrator 16.2.1, SVG Export Plug-In . SVG Version: 6.00 Build 0)  -->

<svg
   xmlns:dc="http://purl.org/dc/elements/1.1/"
   xmlns:cc="http://creativecommons.org/ns#"
   xmlns:rdf="http://www.w3.org/1999/02/22-rdf-syntax-ns#"
   xmlns:svg="http://www.w3.org/2000/svg"
   xmlns="http://www.w3.org/2000/svg"
   xmlns:sodipodi="http://sodipodi.sourceforge.net/DTD/sodipodi-0.dtd"
   xmlns:inkscape="http://www.inkscape.org/namespaces/inkscape"
   version="1.1"
   id="Layer_1"
   x="0px"
   y="0px"
   width="512px"
   height="512px"
   viewBox="0 0 512 512"
   enable-background="new 0 0 512 512"
   xml:space="preserve"
   inkscape:version="0.48.3.1 r9886"
   sodipodi:docname="eye-disabled.svg"><metadata
   id="metadata3106"><rdf:RDF><cc:Work
       rdf:about=""><dc:format>image/svg+xml</dc:format><dc:type
         rdf:resource="http://purl.org/dc/dcmitype/StillImage" /></cc:Work></rdf:RDF></metadata><defs
   id="defs3104" /><sodipodi:namedview
   pagecolor="#ffffff"
   bordercolor="#666666"
   borderopacity="1"
   objecttolerance="10"
   gridtolerance="10"
   guidetolerance="10"
   inkscape:pageopacity="0"
   inkscape:pageshadow="2"
   inkscape:window-width="745"
   inkscape:window-height="480"
   id="namedview3102"
   showgrid="false"
   inkscape:zoom="0.4609375"
   inkscape:cx="256"
   inkscape:cy="256"
   inkscape:window-x="0"
   inkscape:window-y="24"
   inkscape:window-maximized="0"
   inkscape:current-layer="g3092" />
<g
   id="g3092">
	<path
   d="M335.578,221.688l-96.859,96.875C244.297,319.406,250,320,256,320c70.688,0,112-64,112-64S356.547,238.438,335.578,221.688   z"
   id="path3094"
   style="fill:#1c619a;fill-opacity:1" />
	<path
   d="M176.453,290.328l96.859-96.875C267.734,192.609,262,192,256,192c-70.688,0-112,64-112,64S155.453,273.594,176.453,290.328   z"
   id="path3096"
   style="fill:#1c619a;fill-opacity:1" />
	<polygon
   points="144,344 166.406,368 368,166.398 345.594,144  "
   id="polygon3098"
   style="fill:#1c619a;fill-opacity:1" />
	<path
   d="M256,0C114.609,0,0,114.609,0,256s114.609,256,256,256s256-114.609,256-256S397.391,0,256,0z M256,472   c-119.297,0-216-96.703-216-216S136.703,40,256,40s216,96.703,216,216S375.297,472,256,472z"
   id="path3100"
   style="fill:#dddddd;fill-opacity:1" />
</g>
</svg>