<?xml version="1.0" encoding="UTF-8" standalone="no"?>
<!-- Created with Inkscape (http://www.inkscape.org/) -->

<svg
   xmlns:dc="http://purl.org/dc/elements/1.1/"
   xmlns:cc="http://creativecommons.org/ns#"
   xmlns:rdf="http://www.w3.org/1999/02/22-rdf-syntax-ns#"
   xmlns:svg="http://www.w3.org/2000/svg"
   xmlns="http://www.w3.org/2000/svg"
   xmlns:sodipodi="http://sodipodi.sourceforge.net/DTD/sodipodi-0.dtd"
   xmlns:inkscape="http://www.inkscape.org/namespaces/inkscape"
   width="606.92072"
   height="585.83478"
   id="svg2"
   version="1.1"
   inkscape:version="0.48.4 r9939"
   sodipodi:docname="CC.svg">
  <defs
     id="defs4" />
  <sodipodi:namedview
     id="base"
     pagecolor="#ffffff"
     bordercolor="#666666"
     borderopacity="1.0"
     inkscape:pageopacity="0.0"
     inkscape:pageshadow="2"
     inkscape:zoom="0.7"
     inkscape:cx="283.90073"
     inkscape:cy="374.71463"
     inkscape:document-units="px"
     inkscape:current-layer="layer1"
     showgrid="false"
     inkscape:window-width="1067"
     inkscape:window-height="760"
     inkscape:window-x="21"
     inkscape:window-y="53"
     inkscape:window-maximized="0"
     fit-margin-top="0"
     fit-margin-left="0"
     fit-margin-right="0"
     fit-margin-bottom="0" />
  <metadata
     id="metadata7">
    <rdf:RDF>
      <cc:Work
         rdf:about="">
        <dc:format>image/svg+xml</dc:format>
        <dc:type
           rdf:resource="http://purl.org/dc/dcmitype/StillImage" />
        <dc:title></dc:title>
      </cc:Work>
    </rdf:RDF>
  </metadata>
  <g
     inkscape:label="Calque 1"
     inkscape:groupmode="layer"
     id="layer1"
     transform="translate(-69.432166,-207.61193)">
    <path
       style="fill:#ffffff;fill-opacity:1"
       d="m 470.82012,793.31301 c -37.66219,-2.4698 -72.45976,-14.6674 -102.50714,-35.9318 -6.65881,-4.71241 -17.58723,-13.80312 -21.8976,-18.21531 l -2.99742,-3.06828 34.58455,-34.57108 34.58454,-34.57112 4.69408,4.063 c 10.24819,8.8704 22.1852,15.60647 35.21336,19.87096 10.54246,3.45082 17.45264,4.53421 28.92014,4.53421 6.58789,0 11.26996,-0.31755 15.46225,-1.04868 13.36132,-2.33022 29.83237,-9.27763 41.22275,-17.3876 6.95274,-4.95037 16.96538,-14.963 21.91574,-21.91575 8.10997,-11.39037 15.0574,-27.86142 17.38761,-41.22274 0.73113,-4.19229 1.04868,-8.87437 1.04868,-15.46225 0,-6.58789 -0.31755,-11.26996 -1.04868,-15.46226 -2.33021,-13.36131 -9.27764,-29.83236 -17.38761,-41.22274 -4.95036,-6.95275 -14.963,-16.96538 -21.91574,-21.91575 -11.39038,-8.10997 -27.86143,-15.0574 -41.22275,-17.38761 -8.21836,-1.43327 -22.70614,-1.43327 -30.9245,0 -17.05372,2.97417 -35.1074,11.6162 -48.52061,23.22612 l -4.54344,3.93261 -34.45797,-34.4255 c -18.95189,-18.93403 -34.45798,-34.58602 -34.45798,-34.7822 0,-0.6035 8.01793,-8.11601 13.5384,-12.68501 24.14171,-19.98079 54.36405,-34.31062 85.53455,-40.55593 13.54301,-2.71348 23.3186,-3.64116 38.3693,-3.64116 30.2887,0 57.49295,6.13966 84.46972,19.06375 29.19421,13.98643 55.98779,36.55943 74.58074,62.83267 19.06296,26.93739 30.91311,57.94231 34.88027,91.26132 1.34333,11.2824 1.34333,32.24097 0,43.52338 -4.6215,38.81459 -19.90547,74.38992 -44.53135,103.65252 -6.45251,7.66738 -18.01306,19.14931 -25.49553,25.32213 -28.5172,23.5258 -64.61702,38.8412 -101.56948,43.0909 -7.76821,0.8934 -26.52137,1.5194 -32.92888,1.0992 z m 6.2048,-157.1553 c -4.58139,-0.81128 -11.8123,-3.65281 -15.46477,-6.07718 -7.43711,-4.93648 -12.51602,-11.62425 -15.5887,-20.52678 -1.71307,-4.96329 -1.97658,-6.45206 -1.97658,-11.16718 0,-4.71513 0.26351,-6.2039 1.97658,-11.16719 4.29192,-12.43505 12.41362,-20.55675 24.84867,-24.84867 4.96329,-1.71307 6.45206,-1.97658 11.16719,-1.97658 4.71512,0 6.20389,0.26351 11.16718,1.97658 12.43505,4.29192 20.55675,12.41362 24.84868,24.84867 1.71306,4.96329 1.97657,6.45206 1.97657,11.16719 0,12.24089 -6.87655,24.59906 -17.67702,31.76818 -6.86652,4.55785 -18.21687,7.25333 -25.2778,6.00296 z M 253.7759,597.45781 C 198.85242,593.85603 149.74002,569.26097 114.97103,527.94555 90.345136,498.68299 75.061196,463.10764 70.439686,424.29305 c -1.34336,-11.28241 -1.34336,-32.24098 0,-43.52338 5.99826,-50.37753 30.131564,-95.33482 68.516534,-127.63769 24.93883,-20.98726 55.02899,-35.46419 87.04489,-41.87889 13.54301,-2.71347 23.3186,-3.64116 38.3693,-3.64116 15.0507,0 24.82628,0.92769 38.36929,3.64116 31.1705,6.24532 61.39285,20.57514 85.53455,40.55593 5.52048,4.569 13.53841,12.08151 13.53841,12.68501 0,0.19618 -15.50609,15.84818 -34.45798,34.7822 l -34.45798,34.4255 -4.54343,-3.93261 c -13.41321,-11.60992 -31.46689,-20.25195 -48.52061,-23.22611 -8.21837,-1.43328 -22.70614,-1.43328 -30.92451,0 -13.36131,2.3302 -29.83236,9.27763 -41.22274,17.3876 -6.95275,4.95037 -16.96538,14.963 -21.91574,21.91575 -8.10997,11.39038 -15.0574,27.86143 -17.38761,41.22274 -1.43328,8.21837 -1.43328,22.70615 0,30.92451 2.33021,13.36132 9.27764,29.83237 17.38761,41.22275 4.95036,6.95274 14.96299,16.96538 21.91574,21.91574 11.39038,8.10997 27.86143,15.0574 41.22274,17.38761 4.1923,0.73113 8.87437,1.04868 15.46226,1.04868 11.4675,0 18.37768,-1.08341 28.92014,-4.53425 13.02816,-4.26446 24.96517,-11.00053 35.21335,-19.87093 l 4.69408,-4.063 34.58454,34.57111 34.58455,34.5711 -2.99742,3.06826 c -1.64858,1.68754 -5.96185,5.56477 -9.58506,8.61606 -29.06755,24.4794 -65.26791,40.08333 -103.07982,44.43189 -7.7682,0.89338 -26.52136,1.51938 -32.92887,1.09918 z m 5.05945,-157.15531 c -4.58139,-0.81128 -11.8123,-3.65281 -15.46478,-6.07718 -7.4371,-4.93648 -12.51602,-11.62425 -15.5887,-20.52678 -1.71306,-4.96329 -1.97657,-6.45206 -1.97657,-11.16718 0,-4.71513 0.26351,-6.2039 1.97657,-11.16719 4.29192,-12.43505 12.41362,-20.55675 24.84868,-24.84867 4.96328,-1.71307 6.45206,-1.97658 11.16718,-1.97658 4.71512,0 6.2039,0.26351 11.16718,1.97658 12.43506,4.29192 20.55676,12.41362 24.84868,24.84867 1.71306,4.96329 1.97657,6.45206 1.97657,11.16719 0,12.24089 -6.87655,24.59906 -17.67701,31.76818 -6.86652,4.55786 -18.21688,7.25333 -25.2778,6.00296 z"
       id="path3047"
       inkscape:connector-curvature="0" />
  </g>
</svg>
