<?xml version="1.0" encoding="UTF-8" standalone="no"?>
<!-- Created with Inkscape (http://www.inkscape.org/) -->

<svg
   xmlns:dc="http://purl.org/dc/elements/1.1/"
   xmlns:cc="http://creativecommons.org/ns#"
   xmlns:rdf="http://www.w3.org/1999/02/22-rdf-syntax-ns#"
   xmlns:svg="http://www.w3.org/2000/svg"
   xmlns="http://www.w3.org/2000/svg"
   xmlns:sodipodi="http://sodipodi.sourceforge.net/DTD/sodipodi-0.dtd"
   xmlns:inkscape="http://www.inkscape.org/namespaces/inkscape"
   width="72.519508"
   height="70"
   id="svg2"
   version="1.1"
   inkscape:version="0.48.4 r9939"
   sodipodi:docname="bg-logo.svg">
  <defs
     id="defs4" />
  <sodipodi:namedview
     id="base"
     pagecolor="#ffffff"
     bordercolor="#666666"
     borderopacity="1.0"
     inkscape:pageopacity="0.0"
     inkscape:pageshadow="2"
     inkscape:zoom="0.7"
     inkscape:cx="283.90073"
     inkscape:cy="374.71465"
     inkscape:document-units="px"
     inkscape:current-layer="layer1"
     showgrid="false"
     inkscape:window-width="1280"
     inkscape:window-height="951"
     inkscape:window-x="0"
     inkscape:window-y="24"
     inkscape:window-maximized="1"
     fit-margin-top="0"
     fit-margin-left="0"
     fit-margin-right="0"
     fit-margin-bottom="0" />
  <metadata
     id="metadata7">
    <rdf:RDF>
      <cc:Work
         rdf:about="">
        <dc:format>image/svg+xml</dc:format>
        <dc:type
           rdf:resource="http://purl.org/dc/dcmitype/StillImage" />
        <dc:title />
      </cc:Work>
    </rdf:RDF>
  </metadata>
  <g
     inkscape:label="Calque 1"
     inkscape:groupmode="layer"
     id="layer1"
     transform="translate(-69.432166,-723.44673)">
    <path
       style="fill:#ffffff;fill-opacity:1"
       d="m 117.39305,793.43075 c -4.50016,-0.29511 -8.65804,-1.75257 -12.24833,-4.2934 -0.79565,-0.56308 -2.10146,-1.6493 -2.61649,-2.17651 l -0.35816,-0.36662 4.13243,-4.13081 4.13242,-4.13082 0.56089,0.48548 c 1.22453,1.0599 2.65085,1.86478 4.20756,2.37433 1.25969,0.41233 2.08537,0.54178 3.4556,0.54178 0.78717,0 1.34662,-0.0379 1.84754,-0.1253 1.59652,-0.27844 3.5646,-1.10857 4.92561,-2.07761 0.83077,-0.5915 2.02715,-1.78789 2.61866,-2.61866 0.96904,-1.36101 1.79917,-3.32909 2.0776,-4.9256 0.0874,-0.50093 0.12531,-1.06038 0.12531,-1.84755 0,-0.78717 -0.0379,-1.34662 -0.12531,-1.84755 -0.27843,-1.59651 -1.10856,-3.5646 -2.0776,-4.92561 -0.59151,-0.83076 -1.78789,-2.02715 -2.61866,-2.61866 -1.36101,-0.96904 -3.32909,-1.79917 -4.92561,-2.0776 -0.98199,-0.17126 -2.7131,-0.17126 -3.69509,0 -2.03771,0.35538 -4.1949,1.38799 -5.79761,2.77523 l -0.54289,0.4699 -4.1173,-4.11342 c -2.26451,-2.26238 -4.1173,-4.1326 -4.1173,-4.15604 0,-0.0721 0.95804,-0.96976 1.61767,-1.5157 2.88464,-2.38746 6.49583,-4.0997 10.22032,-4.84593 1.61822,-0.32423 2.78628,-0.43508 4.58466,-0.43508 3.61912,0 6.86969,0.73362 10.09308,2.27788 3.48835,1.67121 6.68985,4.3684 8.91148,7.50773 2.27778,3.21868 3.69373,6.92339 4.16776,10.9046 0.16051,1.3481 0.16051,3.85239 0,5.2005 -0.55222,4.63786 -2.37846,8.88868 -5.32095,12.38519 -0.77099,0.91616 -2.15234,2.28811 -3.0464,3.02568 -3.40745,2.81105 -7.72093,4.64105 -12.13629,5.14883 -0.92821,0.10675 -3.16898,0.18155 -3.9346,0.13134 z m 0.7414,-18.77811 c -0.54742,-0.0969 -1.41142,-0.43646 -1.84785,-0.72615 -0.88864,-0.58984 -1.49551,-1.38895 -1.86266,-2.45269 -0.20469,-0.59305 -0.23617,-0.77094 -0.23617,-1.33434 0,-0.5634 0.0315,-0.74129 0.23617,-1.33434 0.51284,-1.48584 1.48328,-2.45628 2.96911,-2.96911 0.59305,-0.20469 0.77094,-0.23618 1.33434,-0.23618 0.5634,0 0.74129,0.0315 1.33434,0.23618 1.48584,0.51283 2.45628,1.48327 2.96911,2.96911 0.20469,0.59305 0.23618,0.77094 0.23618,1.33434 0,1.46263 -0.82166,2.93928 -2.11219,3.7959 -0.82046,0.54461 -2.17669,0.86669 -3.02038,0.71728 z m -26.675492,-4.62416 c -6.562675,-0.43036 -12.430999,-3.36917 -16.585462,-8.30585 -2.942489,-3.49651 -4.768731,-7.74733 -5.320944,-12.38519 -0.160515,-1.34811 -0.160515,-3.8524 0,-5.2005 0.716718,-6.01949 3.600349,-11.39133 8.186877,-15.25113 2.979881,-2.50771 6.575282,-4.23753 10.400786,-5.004 1.618222,-0.32423 2.786284,-0.43508 4.584656,-0.43508 1.798372,0 2.966433,0.11085 4.584655,0.43508 3.724484,0.74623 7.335684,2.45847 10.220314,4.84593 0.65963,0.54594 1.61768,1.44359 1.61768,1.5157 0,0.0234 -1.85279,1.89366 -4.1173,4.15604 l -4.11731,4.11342 -0.54288,-0.4699 c -1.602713,-1.38724 -3.759904,-2.41985 -5.797612,-2.77523 -0.981993,-0.17126 -2.713102,-0.17126 -3.695096,0 -1.596511,0.27843 -3.564597,1.10856 -4.925606,2.0776 -0.830768,0.59151 -2.027153,1.7879 -2.61866,2.61866 -0.969041,1.36101 -1.799172,3.3291 -2.077604,4.92561 -0.171259,0.98199 -0.171259,2.7131 0,3.6951 0.278432,1.59651 1.108563,3.56459 2.077604,4.9256 0.591507,0.83077 1.787892,2.02716 2.61866,2.61866 1.361009,0.96904 3.329095,1.79918 4.925606,2.07761 0.500928,0.0874 1.060378,0.1253 1.847549,0.1253 1.370224,0 2.195905,-0.12945 3.455598,-0.54179 1.556704,-0.50955 2.983029,-1.31442 4.207561,-2.37433 l 0.56088,-0.48547 4.13243,4.13082 4.13242,4.13081 -0.35815,0.36662 c -0.19699,0.20164 -0.71237,0.66492 -1.1453,1.02952 -3.47321,2.92498 -7.798705,4.78946 -12.31676,5.30906 -0.928204,0.10674 -3.168974,0.18154 -3.934592,0.13133 z M 92.0635,751.25037 c -0.54742,-0.0969 -1.411424,-0.43646 -1.84785,-0.72615 -0.888641,-0.58984 -1.495509,-1.38895 -1.862656,-2.45269 -0.20469,-0.59305 -0.236176,-0.77094 -0.236176,-1.33434 0,-0.5634 0.03149,-0.74129 0.236176,-1.33434 0.512831,-1.48584 1.483273,-2.45628 2.969109,-2.96911 0.59305,-0.20469 0.770941,-0.23618 1.33434,-0.23618 0.563398,0 0.741289,0.0315 1.334339,0.23618 1.485836,0.51283 2.456278,1.48327 2.96911,2.96911 0.204689,0.59305 0.236175,0.77094 0.236175,1.33434 0,1.46263 -0.821662,2.93928 -2.112183,3.7959 -0.820464,0.54461 -2.176692,0.86669 -3.020384,0.71728 z"
       id="path3047"
       inkscape:connector-curvature="0" />
  </g>
</svg>
